<mxfile host="65bd71144e">
    <diagram id="SZZC734VAEU2JRn1MekJ" name="Page-1">
        <mxGraphModel dx="606" dy="471" grid="1" gridSize="10" guides="1" tooltips="1" connect="1" arrows="1" fold="1" page="1" pageScale="1" pageWidth="850" pageHeight="1100" math="0" shadow="0">
            <root>
                <mxCell id="0"/>
                <mxCell id="1" parent="0"/>
                <mxCell id="8" style="edgeStyle=none;html=1;entryX=0;entryY=0.5;entryDx=0;entryDy=0;rounded=0;curved=1;exitX=1;exitY=0.5;exitDx=0;exitDy=0;" parent="1" edge="1">
                    <mxGeometry relative="1" as="geometry">
                        <mxPoint x="160" y="230" as="sourcePoint"/>
                        <mxPoint x="280" y="230" as="targetPoint"/>
                        <Array as="points">
                            <mxPoint x="220" y="190"/>
                        </Array>
                    </mxGeometry>
                </mxCell>
                <mxCell id="9" value="&lt;div&gt;&lt;span style=&quot;background-color: light-dark(#ffffff, var(--ge-dark-color, #121212));&quot;&gt;手持ちポケモン情報要求&lt;/span&gt;&lt;/div&gt;" style="edgeLabel;html=1;align=center;verticalAlign=middle;resizable=0;points=[];" parent="8" vertex="1" connectable="0">
                    <mxGeometry x="-0.1885" y="-17" relative="1" as="geometry">
                        <mxPoint x="1" y="-21" as="offset"/>
                    </mxGeometry>
                </mxCell>
                <mxCell id="37" style="edgeStyle=none;html=1;entryX=0;entryY=0.5;entryDx=0;entryDy=0;rounded=0;curved=1;exitX=1;exitY=0.5;exitDx=0;exitDy=0;" parent="1" source="4" target="36" edge="1">
                    <mxGeometry relative="1" as="geometry">
                        <Array as="points">
                            <mxPoint x="420" y="190"/>
                        </Array>
                    </mxGeometry>
                </mxCell>
                <mxCell id="39" value="リクエスト" style="edgeLabel;html=1;align=center;verticalAlign=middle;resizable=0;points=[];" parent="37" vertex="1" connectable="0">
                    <mxGeometry x="-0.0967" y="-12" relative="1" as="geometry">
                        <mxPoint x="-1" y="-4" as="offset"/>
                    </mxGeometry>
                </mxCell>
                <mxCell id="4" value="&lt;div&gt;&lt;b&gt;手持ち&lt;/b&gt;&lt;/div&gt;&lt;div&gt;&lt;b&gt;ポケモン&lt;/b&gt;&lt;b style=&quot;color: rgb(63, 63, 63); background-color: transparent;&quot;&gt;情報&lt;/b&gt;&lt;/div&gt;" style="ellipse;whiteSpace=wrap;html=1;aspect=fixed;" parent="1" vertex="1">
                    <mxGeometry x="280" y="190" width="80" height="80" as="geometry"/>
                </mxCell>
                <mxCell id="17" style="edgeStyle=none;html=1;rounded=0;curved=1;exitX=0;exitY=0.5;exitDx=0;exitDy=0;endSize=6;entryX=1;entryY=0.5;entryDx=0;entryDy=0;" parent="1" edge="1">
                    <mxGeometry relative="1" as="geometry">
                        <mxPoint x="280" y="230" as="sourcePoint"/>
                        <mxPoint x="160" y="230" as="targetPoint"/>
                        <Array as="points">
                            <mxPoint x="220" y="270"/>
                        </Array>
                    </mxGeometry>
                </mxCell>
                <mxCell id="22" value="&lt;div style=&quot;color: rgb(63, 63, 63); scrollbar-color: rgb(226, 226, 226) rgb(251, 251, 251);&quot;&gt;&lt;span style=&quot;background-color: light-dark(#ffffff, var(--ge-dark-color, #121212));&quot;&gt;手持ちポケモン情報受信&lt;/span&gt;&lt;/div&gt;" style="edgeLabel;html=1;align=center;verticalAlign=middle;resizable=0;points=[];" parent="17" vertex="1" connectable="0">
                    <mxGeometry x="0.1654" y="-11" relative="1" as="geometry">
                        <mxPoint x="4" y="16" as="offset"/>
                    </mxGeometry>
                </mxCell>
                <mxCell id="43" style="edgeStyle=none;html=1;entryX=0;entryY=0.5;entryDx=0;entryDy=0;rounded=0;curved=1;exitX=0.5;exitY=1;exitDx=0;exitDy=0;" parent="1" source="35" target="42" edge="1">
                    <mxGeometry relative="1" as="geometry">
                        <Array as="points">
                            <mxPoint x="230" y="330"/>
                        </Array>
                    </mxGeometry>
                </mxCell>
                <mxCell id="44" value="対戦情報&lt;div&gt;要求・送信&lt;/div&gt;" style="edgeLabel;html=1;align=center;verticalAlign=middle;resizable=0;points=[];" parent="43" vertex="1" connectable="0">
                    <mxGeometry x="0.1053" y="-5" relative="1" as="geometry">
                        <mxPoint x="32" y="-2" as="offset"/>
                    </mxGeometry>
                </mxCell>
                <mxCell id="53" style="edgeStyle=none;html=1;entryX=0;entryY=0.5;entryDx=0;entryDy=0;rounded=0;curved=1;" parent="1" source="35" target="52" edge="1">
                    <mxGeometry relative="1" as="geometry">
                        <Array as="points">
                            <mxPoint x="180" y="90"/>
                        </Array>
                    </mxGeometry>
                </mxCell>
                <mxCell id="35" value="&lt;b&gt;ユーザー&lt;/b&gt;" style="rounded=0;whiteSpace=wrap;html=1;" parent="1" vertex="1">
                    <mxGeometry x="40" y="200" width="120" height="60" as="geometry"/>
                </mxCell>
                <mxCell id="38" style="edgeStyle=none;html=1;entryX=1;entryY=0.5;entryDx=0;entryDy=0;rounded=0;curved=1;exitX=0;exitY=0.5;exitDx=0;exitDy=0;" parent="1" source="36" target="4" edge="1">
                    <mxGeometry relative="1" as="geometry">
                        <Array as="points">
                            <mxPoint x="420" y="280"/>
                        </Array>
                    </mxGeometry>
                </mxCell>
                <mxCell id="40" value="レスポンス" style="edgeLabel;html=1;align=center;verticalAlign=middle;resizable=0;points=[];" parent="38" vertex="1" connectable="0">
                    <mxGeometry x="-0.0783" y="-12" relative="1" as="geometry">
                        <mxPoint x="3" y="3" as="offset"/>
                    </mxGeometry>
                </mxCell>
                <mxCell id="48" style="edgeStyle=none;html=1;entryX=1;entryY=0.5;entryDx=0;entryDy=0;rounded=0;curved=1;exitX=0.5;exitY=1;exitDx=0;exitDy=0;" parent="1" source="36" target="42" edge="1">
                    <mxGeometry relative="1" as="geometry">
                        <Array as="points">
                            <mxPoint x="490" y="380"/>
                        </Array>
                    </mxGeometry>
                </mxCell>
                <mxCell id="49" value="レスポンス" style="edgeLabel;html=1;align=center;verticalAlign=middle;resizable=0;points=[];" parent="48" vertex="1" connectable="0">
                    <mxGeometry x="-0.1059" y="-9" relative="1" as="geometry">
                        <mxPoint x="25" y="21" as="offset"/>
                    </mxGeometry>
                </mxCell>
                <mxCell id="59" style="edgeStyle=none;html=1;entryX=0.5;entryY=1;entryDx=0;entryDy=0;rounded=0;curved=1;" parent="1" source="36" target="52" edge="1">
                    <mxGeometry relative="1" as="geometry">
                        <Array as="points">
                            <mxPoint x="400" y="150"/>
                        </Array>
                    </mxGeometry>
                </mxCell>
                <mxCell id="36" value="&lt;b&gt;バックエンド&lt;/b&gt;" style="rounded=0;whiteSpace=wrap;html=1;" parent="1" vertex="1">
                    <mxGeometry x="480" y="200" width="120" height="60" as="geometry"/>
                </mxCell>
                <mxCell id="46" style="edgeStyle=none;html=1;entryX=0.5;entryY=1;entryDx=0;entryDy=0;rounded=0;curved=1;exitX=1;exitY=0.5;exitDx=0;exitDy=0;" parent="1" source="42" target="36" edge="1">
                    <mxGeometry relative="1" as="geometry">
                        <Array as="points">
                            <mxPoint x="420" y="340"/>
                        </Array>
                    </mxGeometry>
                </mxCell>
                <mxCell id="47" value="リクエスト" style="edgeLabel;html=1;align=center;verticalAlign=middle;resizable=0;points=[];" parent="46" vertex="1" connectable="0">
                    <mxGeometry x="0.0002" y="-13" relative="1" as="geometry">
                        <mxPoint x="-31" y="-18" as="offset"/>
                    </mxGeometry>
                </mxCell>
                <mxCell id="50" style="edgeStyle=none;html=1;entryX=0.5;entryY=1;entryDx=0;entryDy=0;rounded=0;curved=1;exitX=0;exitY=0.5;exitDx=0;exitDy=0;" parent="1" source="42" target="35" edge="1">
                    <mxGeometry relative="1" as="geometry">
                        <Array as="points">
                            <mxPoint x="170" y="390"/>
                        </Array>
                    </mxGeometry>
                </mxCell>
                <mxCell id="42" value="&lt;b&gt;対戦情報&lt;/b&gt;" style="ellipse;whiteSpace=wrap;html=1;aspect=fixed;" parent="1" vertex="1">
                    <mxGeometry x="280" y="420" width="80" height="80" as="geometry"/>
                </mxCell>
                <mxCell id="51" value="対戦情報&lt;div&gt;受信&lt;/div&gt;" style="edgeLabel;html=1;align=center;verticalAlign=middle;resizable=0;points=[];" parent="1" vertex="1" connectable="0">
                    <mxGeometry x="271.40831969588544" y="350.39001948648627" as="geometry">
                        <mxPoint x="-118" y="41" as="offset"/>
                    </mxGeometry>
                </mxCell>
                <mxCell id="56" style="edgeStyle=none;html=1;entryX=0.5;entryY=0;entryDx=0;entryDy=0;rounded=0;curved=1;" parent="1" source="52" target="36" edge="1">
                    <mxGeometry relative="1" as="geometry">
                        <Array as="points">
                            <mxPoint x="480" y="50"/>
                        </Array>
                    </mxGeometry>
                </mxCell>
                <mxCell id="52" value="&lt;div&gt;&lt;b&gt;&lt;span style=&quot;color: rgb(63, 63, 63); background-color: transparent;&quot;&gt;ポケモン&lt;/span&gt;&lt;span style=&quot;background-color: transparent; color: rgb(63, 63, 63);&quot;&gt;情報&lt;/span&gt;&lt;/b&gt;&lt;/div&gt;" style="ellipse;whiteSpace=wrap;html=1;aspect=fixed;" parent="1" vertex="1">
                    <mxGeometry x="280" width="80" height="80" as="geometry"/>
                </mxCell>
                <mxCell id="57" value="&lt;div&gt;&lt;span style=&quot;background-color: light-dark(#ffffff, var(--ge-dark-color, #121212));&quot;&gt;ポケモン情報要求&lt;/span&gt;&lt;/div&gt;" style="edgeLabel;html=1;align=center;verticalAlign=middle;resizable=0;points=[];" parent="1" vertex="1" connectable="0">
                    <mxGeometry x="150.00087070176164" y="79.99754342645481" as="geometry"/>
                </mxCell>
                <mxCell id="58" value="リクエスト" style="edgeLabel;html=1;align=center;verticalAlign=middle;resizable=0;points=[];" parent="1" vertex="1" connectable="0">
                    <mxGeometry x="499.99967148666246" y="79.99909077741421" as="geometry"/>
                </mxCell>
                <mxCell id="60" value="レスポンス" style="edgeLabel;html=1;align=center;verticalAlign=middle;resizable=0;points=[];" parent="1" vertex="1" connectable="0">
                    <mxGeometry x="399.99967148666246" y="149.9990907774142" as="geometry"/>
                </mxCell>
                <mxCell id="61" style="edgeStyle=none;html=1;entryX=0.65;entryY=0.011;entryDx=0;entryDy=0;entryPerimeter=0;exitX=0.5;exitY=1;exitDx=0;exitDy=0;rounded=0;curved=1;" parent="1" source="52" target="35" edge="1">
                    <mxGeometry relative="1" as="geometry">
                        <Array as="points">
                            <mxPoint x="230" y="160"/>
                        </Array>
                    </mxGeometry>
                </mxCell>
                <mxCell id="62" value="ポケモン情報受信" style="edgeLabel;html=1;align=center;verticalAlign=middle;resizable=0;points=[];" parent="1" vertex="1" connectable="0">
                    <mxGeometry x="239.99967148666246" y="149.9990907774142" as="geometry"/>
                </mxCell>
            </root>
        </mxGraphModel>
    </diagram>
</mxfile>